<?xml version="1.0" encoding="UTF-8" standalone="no"?>
<!-- Created with Inkscape (http://www.inkscape.org/) -->
<svg
   xmlns:dc="http://purl.org/dc/elements/1.1/"
   xmlns:cc="http://web.resource.org/cc/"
   xmlns:rdf="http://www.w3.org/1999/02/22-rdf-syntax-ns#"
   xmlns:svg="http://www.w3.org/2000/svg"
   xmlns="http://www.w3.org/2000/svg"
   xmlns:xlink="http://www.w3.org/1999/xlink"
   xmlns:sodipodi="http://sodipodi.sourceforge.net/DTD/sodipodi-0.dtd"
   xmlns:inkscape="http://www.inkscape.org/namespaces/inkscape"
   width="64px"
   height="64px"
   id="svg2168"
   sodipodi:version="0.32"
   inkscape:version="0.45"
   sodipodi:docbase="/home/matt/Desktop"
   sodipodi:docname="intuitive_logo.svg"
   inkscape:output_extension="org.inkscape.output.svg.inkscape"
   sodipodi:modified="true">
  <defs
     id="defs2170">
    <linearGradient
       inkscape:collect="always"
       id="linearGradient16128">
      <stop
         style="stop-color:#4039d0;stop-opacity:1;"
         offset="0"
         id="stop16130" />
      <stop
         style="stop-color:#4039d0;stop-opacity:0;"
         offset="1"
         id="stop16132" />
    </linearGradient>
    <linearGradient
       inkscape:collect="always"
       id="linearGradient14172">
      <stop
         style="stop-color:#e6e274;stop-opacity:1;"
         offset="0"
         id="stop14174" />
      <stop
         style="stop-color:#e6e274;stop-opacity:0;"
         offset="1"
         id="stop14176" />
    </linearGradient>
    <linearGradient
       inkscape:collect="always"
       id="linearGradient12178">
      <stop
         style="stop-color:#6bee38;stop-opacity:1;"
         offset="0"
         id="stop12180" />
      <stop
         style="stop-color:#6bee38;stop-opacity:0;"
         offset="1"
         id="stop12182" />
    </linearGradient>
    <linearGradient
       inkscape:collect="always"
       id="linearGradient6316">
      <stop
         style="stop-color:#900000;stop-opacity:1;"
         offset="0"
         id="stop6318" />
      <stop
         style="stop-color:#900000;stop-opacity:0;"
         offset="1"
         id="stop6320" />
    </linearGradient>
    <linearGradient
       inkscape:collect="always"
       xlink:href="#linearGradient6316"
       id="linearGradient6328"
       x1="4.5"
       y1="16.533342"
       x2="33.614925"
       y2="16.533342"
       gradientUnits="userSpaceOnUse" />
    <linearGradient
       inkscape:collect="always"
       xlink:href="#linearGradient12178"
       id="linearGradient12184"
       x1="34.5"
       y1="49.99798"
       x2="61.423259"
       y2="49.99798"
       gradientUnits="userSpaceOnUse" />
    <linearGradient
       inkscape:collect="always"
       xlink:href="#linearGradient14172"
       id="linearGradient14178"
       x1="4.3053978"
       y1="48.480858"
       x2="30.69328"
       y2="48.480858"
       gradientUnits="userSpaceOnUse" />
    <linearGradient
       inkscape:collect="always"
       xlink:href="#linearGradient16128"
       id="linearGradient16134"
       x1="38.92616"
       y1="18.700384"
       x2="58.026436"
       y2="18.700384"
       gradientUnits="userSpaceOnUse" />
  </defs>
  <sodipodi:namedview
     id="base"
     pagecolor="#ffffff"
     bordercolor="#666666"
     borderopacity="1.0"
     inkscape:pageopacity="0.0"
     inkscape:pageshadow="2"
     inkscape:zoom="7.40625"
     inkscape:cx="32"
     inkscape:cy="32"
     inkscape:current-layer="layer1"
     showgrid="true"
     inkscape:document-units="px"
     inkscape:grid-bbox="true"
     inkscape:window-width="1024"
     inkscape:window-height="693"
     inkscape:window-x="0"
     inkscape:window-y="25" />
  <metadata
     id="metadata2173">
    <rdf:RDF>
      <cc:Work
         rdf:about="">
        <dc:format>image/svg+xml</dc:format>
        <dc:type
           rdf:resource="http://purl.org/dc/dcmitype/StillImage" />
      </cc:Work>
    </rdf:RDF>
  </metadata>
  <g
     id="layer1"
     inkscape:label="Layer 1"
     inkscape:groupmode="layer">
    <path
       style="fill:url(#linearGradient6328);fill-rule:evenodd;stroke:#000000;stroke-width:1px;stroke-linecap:butt;stroke-linejoin:miter;stroke-opacity:1;fill-opacity:1.0"
       d="M 9.5138003,17.973777 C 9.1542461,17.973777 8.0138844,16.84884 7.4567624,16.430998 C 6.8321603,15.962547 6.2806011,14.537444 6.1711137,14 C 5.9562555,12.945319 5,12.568889 5,11.159839 C 5,10.30274 5,9.4456405 5,8.5885413 C 5,7.5828964 5.8771934,7.4021059 6.6853732,6.917198 C 7.6729849,6.324631 8.3361425,5.9226216 9.3852355,5.5029845 C 9.5796164,5.4252321 9.7950785,5.4172746 10,5.3744196 C 12.169272,4.9207626 14.436922,4 16.713433,4 C 18.92899,4 20.732371,4 23.013112,4 C 24.985933,4 26.670634,5.3035609 28.027142,6.6600683 C 29.414844,8.0477709 29.577207,9.9359162 31.112698,10.645579 C 32.134148,11.117666 32.925246,14.074682 33.041171,14.759655 C 33.395601,16.853886 32.377026,17.18464 32.012652,19 C 31.921347,19.454899 31.112405,19.387284 30.855569,19.773685 C 30.132914,20.860894 28.346567,21.59016 26.870058,21.959288 C 25.738858,22.242088 24.794706,22.675552 23.913066,23.116372 C 23.3061,23.419854 22.11063,22.987175 21.598898,22.859242 C 20.47705,22.57878 19.818921,22.612078 18.770471,22.087853 C 18.379574,21.892404 17.921859,21.830723 17.484822,21.830723 C 17.372713,21.830723 18.256211,23.303147 18.256211,24.787715 C 18.256211,25.877951 18.921152,27.438728 19.413295,28.258966 C 20.492834,30.058198 18.904329,28.35936 18.256211,27.873272 C 17.720286,27.471328 17.145146,27.136396 16.584868,26.716188 C 15.931321,26.226027 15,25.657797 15,24.65915 C 15,24.318511 13.695525,23.001272 13.499311,22.216417 C 13.325391,21.520737 12.935171,20.864261 12.599357,20.416509 C 12.06447,19.703326 11.801023,19.498512 11.056579,19 C 10.430962,18.58106 10.272678,18.575783 9.5138003,17.973777 z "
       id="path2376" />
    <path
       style="fill:url(#linearGradient14178);fill-rule:evenodd;stroke:#000000;stroke-width:1px;stroke-linecap:butt;stroke-linejoin:miter;stroke-opacity:1;fill-opacity:1.0"
       d="M 6.3384511,34 C 6.3280085,34.020885 9.6694231,34 12.676902,34 C 14.146688,34 15.616474,34 17.086259,34 C 18.991111,34 20.734026,34.512423 22.735748,34.512423 C 23.931301,34.512423 26.094946,34.927824 26.593936,34 C 26.683163,33.834091 28.657146,34 28.936407,34 C 29.167119,34 29.072887,36.297336 30,37.543856 C 30.434881,38.128562 30,40.309982 30,41.126459 C 30,42.58708 29.487577,43.248651 29.487577,44.571269 C 29.487577,45.352093 29.487577,46.132917 29.487577,46.913741 C 29.487577,48.245734 29.487577,49.577727 29.487577,50.909721 C 29.487577,51.703362 29.53706,52.503089 29.349784,53.252192 C 29.28831,53.49809 29.257923,53.750731 29.211992,54 C 29.203669,54.04517 29.12013,54 29.0742,54 C 28.119274,54 28.848099,55.898413 28.660822,56.834794 C 28.4528,57.874905 28.385238,58.910784 28.385238,60.00402 C 28.385238,60.63769 28.798615,61.032452 28.798615,61.795321 C 28.798615,62.784722 28.918554,62.759868 27.696275,62.759868 C 25.938382,62.759868 24.109515,62.897661 22.322371,62.897661 C 21.207238,62.897661 20.187058,63.035453 19.015353,63.035453 C 17.913014,63.035453 16.810675,63.035453 15.708335,63.035453 C 13.755604,63.035453 11.94595,62.759868 10,62.759868 C 8.9375388,62.759868 7.8756001,62.592986 6.8896208,62.346491 C 5.8230928,62.079859 5.6263436,62.33219 5,61.657529 C 4.3464526,60.953566 5.5394166,59.100099 5.649489,59 C 5.9213033,58.752813 6.0628663,56.835004 6.0628663,56.283625 C 6.0628663,55.240717 6.3384511,54.122007 6.3384511,52.976607 C 6.3384511,51.6298 6.4382434,50.096712 6.8896208,49 C 7.2722734,48.070268 7.0274132,46.461104 7.0274132,45.398024 C 7.0274132,44.111961 7.0274132,42.825899 7.0274132,41.539836 C 7.0274132,40.345635 7.0274132,39.151434 7.0274132,37.957234 C 7.0274132,37.021319 6.8896208,36.272324 6.8896208,35.339178 C 6.8896208,34.934713 6.4997093,34.380473 6.3384511,34 z "
       id="path2384" />
    <path
       style="fill:none;fill-rule:evenodd;stroke:#000000;stroke-width:1px;stroke-linecap:butt;stroke-linejoin:miter;stroke-opacity:1"
       d="M 9.0942994,39 C 9.0942994,38.898703 10,36.729079 10,38.095026 C 10,39.78233 12.197459,40.503563 13.090279,39.610743 C 13.248209,39.452813 13.274003,39.203581 13.365864,39 C 13.582659,38.519546 13.032203,40.339562 13.503657,40.575289 C 14.47294,41.059931 13.967479,40.887776 14.468204,39.886327 C 15.117549,38.587638 15.037269,40.101964 16.53509,40.850874 C 16.968892,41.067776 17.971303,39.090961 18.050806,39 C 18.488803,38.498883 18.920843,40.138285 19.566523,40.299705 C 20.420056,40.513088 20.05521,38.859298 21.495617,40.299705 C 21.997042,40.80113 22.695567,39.566249 23.424711,39.748535 C 25.711836,40.320316 24.654888,41.753991 26.593936,40.299705 C 26.984068,40.605673 26.836666,40.056975 26.869521,40.02412"
       id="path2386" />
    <path
       style="fill:none;fill-rule:evenodd;stroke:#000000;stroke-width:1px;stroke-linecap:butt;stroke-linejoin:miter;stroke-opacity:1"
       d="M 8.8187146,45.122439 C 9.6798115,44.476616 10.01871,43.410337 11.298978,42.642176 C 11.44906,42.552127 13.316889,44.302153 13.641449,44.571269 C 14.166948,45.006999 14.551406,42.836467 15.43275,45.122439 C 16.255371,47.256097 17.752614,46.989815 18.739768,45.673609 C 19.863934,44.174721 20.980312,46.674021 21.908994,47.602703 C 22.315381,48.00909 26.031032,43.227945 26.318351,43.055553 C 26.652498,42.855065 26.767957,43.692496 27.007313,44"
       id="path2388" />
    <path
       style="fill:none;fill-rule:evenodd;stroke:#000000;stroke-width:1px;stroke-linecap:butt;stroke-linejoin:miter;stroke-opacity:1"
       d="M 8.4053373,50.220758 C 10.384679,49.033153 9.5440336,49.154776 11.298978,50.909721 C 11.552639,51.163382 11.758286,51.46089 11.98794,51.736475 C 12.652876,52.534398 13.477521,51.080299 14.330411,50.909721 C 15.612304,50.653342 14.393614,51.573222 16.672882,49.945174 C 17.425048,49.407912 18.228806,51.185305 19.153146,51.185305 C 20.062129,51.185305 20.765339,52.508068 21.357824,51.323098 C 21.731608,50.57553 22.365604,51.50817 23.011333,51.185305 C 23.785785,50.798079 23.560017,53.257164 24.52705,51.323098 C 24.597553,51.182091 24.84235,51.323098 25,51.323098"
       id="path2390" />
    <path
       style="fill:none;fill-rule:evenodd;stroke:#000000;stroke-width:1px;stroke-linecap:butt;stroke-linejoin:miter;stroke-opacity:1"
       d="M 8.5431297,58.074926 C 8.79756,57.566066 11.592608,53.539913 12.125733,54.492323 C 13.493183,56.935229 14.567247,57.818716 16.53509,56.834794 C 16.842629,56.681025 17.599113,57.849889 18.601976,57.248172 C 19.76894,56.547993 18.741694,59.830335 21.08224,58.074926 C 21.231823,57.962739 22.173713,58.223584 23.011333,57.385964 C 23.290269,57.107029 24.837441,57.709568 25,57.799341"
       id="path2392" />
    <path
       style="fill:url(#linearGradient12184);fill-rule:evenodd;stroke:#000000;stroke-width:1px;stroke-linecap:butt;stroke-linejoin:miter;stroke-opacity:1;fill-opacity:1.0"
       d="M 43.129026,48.01608 C 43.733151,47.411954 41.995392,46.713359 41.613309,45.949194 C 41.204877,45.132328 40.309907,43.791028 40,43.46893 C 39.691482,43.148276 40,41.204065 40,40.713082 C 40,40.321591 42.274929,38.622038 42.440064,38.370611 C 42.902251,37.666906 44.853937,37.444717 45.471497,37.268271 C 46.525782,36.967047 48.090416,37.268271 49.191892,37.268271 C 50.645874,37.268271 51.136208,37.283493 51.947741,38.095026 C 53.090967,39.238252 54.03418,40.916325 55,42.228798 C 55.600967,43.045466 55.530343,44.239542 55.530343,45.535816 C 55.530343,46.382231 54.090417,47.683652 53.463457,48.153872 C 52.590727,48.80842 51.507858,48.151158 52.223325,49.531796 C 52.486061,50.038798 53.277157,50.127608 53.739042,50.358551 C 54.523255,50.750657 54.995309,51.322296 55.805928,51.46089 C 56.397671,51.562063 57.063971,51.598683 57.735022,51.598683 C 57.992673,51.598683 58.874397,52.912885 58.975154,53.114399 C 59.453899,54.071891 60,54.861106 60,55.870248 C 60,56.55921 60,57.248172 60,57.937134 C 60,59.085145 59.747227,60.137693 60.49087,60.55519 C 61.058027,60.873604 60.904247,61.905447 60.904247,62.484283 C 60.904247,62.970564 58.054242,62.410335 57.735022,62.346491 C 56.751277,62.149742 55.245553,62.208699 54.428004,62.208699 C 53.739042,62.208699 53.05008,62.208699 52.361118,62.208699 C 51.574079,62.208699 50.787039,62.208699 50,62.208699 C 48.953173,62.208699 48.032484,62.346491 46.987214,62.346491 C 45.957027,62.346491 45.026744,62.484283 43.95578,62.484283 C 43.166537,62.484283 42.470767,62.579952 41.751102,62.759868 C 40.835814,62.98869 39.664017,62.759868 38.719669,62.759868 C 38.02148,62.759868 37.141477,62.74425 36.652782,62.622076 C 36.513279,62.5872 36.239405,60.924701 36.239405,60.692982 C 36.239405,60.117637 35.655215,58.938688 35.412651,58.488303 C 35.025495,57.769445 35,57.378286 35,56.421417 C 35,55.614278 35,54.807139 35,54 C 35,52.982803 35.555518,52.277494 35.96382,51.46089 C 36.325645,50.737242 37.2029,50.359077 37.755122,50.082966 C 38.333873,49.79359 39.491588,49.788052 40,49.669589 C 41.152192,49.401122 40.871171,49 42.164479,49 C 43.132842,49 43.129026,49.24851 43.129026,48.01608 z "
       id="path2396" />
    <path
       style="fill:url(#linearGradient16134);fill-rule:nonzero;stroke:#000000;stroke-width:1px;stroke-linecap:butt;stroke-linejoin:miter;stroke-opacity:1;fill-opacity:1.0"
       d="M 40,9 C 40,9.8255977 40,10.651195 40,11.476793 C 40,12.646976 40,13.817159 40,14.987342 C 40,15.707454 40,16.427567 40,17.147679 C 40,17.694114 39.42616,18.933765 39.42616,19.983122 C 39.42616,21.096012 40,21.446732 40,22.413502 C 40,23.35865 40,24.303797 40,25.248945 C 40,25.969058 40,26.68917 40,27.409283 C 40,28.562652 40.133922,29.197213 40.911392,29.974684 C 41.564813,30.628105 42.064888,31.106939 42.936709,31.324895 C 44.487183,31.712513 46.154448,32.540084 47.797468,32.540084 C 49.109861,32.540084 50.463683,32.945148 51.848101,32.945148 C 53.255074,32.945148 53.856886,31.986242 55,31.459916 C 55.480895,31.238496 56.471217,30.887432 56.843882,30.514768 C 57.476976,29.881674 57.113924,28.238689 57.113924,27.409283 C 57.113924,26.389485 57.248945,25.435872 57.248945,24.438819 C 57.248945,23.578103 56.843882,22.502742 56.843882,21.468354 C 56.843882,20.4782 56.843882,19.488045 56.843882,18.49789 C 56.843882,17.642757 56.843882,16.787623 56.843882,15.932489 C 56.843882,14.933172 57.098904,14.10045 57.248945,13.097046 C 57.347487,12.438047 57.383966,11.792598 57.383966,11.07173 C 57.383966,10.152988 57.410987,9.2623305 57.518987,8.5063291 C 57.611511,7.8586666 56.818711,7.3925997 56.438819,6.8860759 C 55.888064,6.1517362 55.360653,5.9029233 54.548523,5.6708861 C 54.370094,5.6199064 54.188467,5.580872 54.008439,5.535865 C 52.432921,5.1419856 50.877146,4.8908483 49.2827,4.5907173 C 48.439524,4.4320018 47.518689,4.3903699 46.7173,4.5907173 C 45.698953,4.8453039 44.580389,5.0236792 43.611814,5.2658228 C 42.809776,5.4663323 42.500018,5.8892317 41.85654,6.2109705 C 41.315434,6.4815236 40.89227,7.4516569 40.506329,7.9662447 C 39.6689,9.0828162 39.704652,10.174093 40.911392,10.531646 C 41.435085,10.686814 41.891315,11.147934 42.666667,11.341772 C 43.641665,11.585522 44.574255,11.884327 45.50211,12.016878 C 46.495983,12.15886 47.411397,12.28692 48.472574,12.28692 C 49.462729,12.28692 50.452883,12.28692 51.443038,12.28692 C 52.296897,12.28692 52.699724,12.198661 53.333333,11.881857 C 54.209758,11.443644 54.495292,11.119488 55,10.666667 C 55.0335,10.63661 55,10.576653 55,10.531646 C 55,9.7996081 56.409609,9.7133772 56.57384,9"
       id="path14180" />
  </g>
</svg>
